<?xml version="1.0" standalone="no"?>
<!DOCTYPE svg PUBLIC "-//W3C//DTD SVG 20010904//EN"
 "http://www.w3.org/TR/2001/REC-SVG-20010904/DTD/svg10.dtd">
<svg version="1.0" xmlns="http://www.w3.org/2000/svg"
 width="640.000000pt" height="640.000000pt" viewBox="0 0 640.000000 640.000000"
 preserveAspectRatio="xMidYMid meet">

<g transform="translate(0.000000,640.000000) scale(0.100000,-0.100000)"
fill="#000000" stroke="none">
<path d="M1137 6293 c-4 -58 -7 -175 -7 -260 l0 -153 -97 -1 c-54 -1 -105 -3
-113 -4 -8 -1 -219 -3 -467 -4 l-453 -1 0 -170 0 -170 143 -1 c78 -1 331 0
563 1 l421 2 6 -193 c4 -107 10 -209 13 -227 7 -41 7 -149 2 -1047 -3 -493 -7
-718 -15 -736 -6 -15 -9 -46 -7 -70 3 -33 2 -39 -5 -24 -11 23 -13 21 -15 -17
-2 -23 2 -28 21 -28 22 0 23 -4 22 -62 -1 -35 -3 -55 -6 -45 -2 9 -9 17 -14
17 -5 0 -9 12 -9 28 0 23 -4 27 -30 28 -37 1 -39 -13 -4 -26 16 -6 22 -14 18
-22 -6 -9 -9 -9 -12 0 -8 24 -32 12 -32 -15 0 -16 -5 -35 -10 -43 -8 -13 -10
-12 -10 3 0 15 -11 17 -80 17 -47 0 -80 -4 -80 -10 0 -5 3 -10 8 -11 4 0 34
-3 66 -5 33 -2 61 -6 64 -8 10 -11 -69 -76 -93 -76 -14 0 -25 -4 -25 -10 0 -5
-9 -10 -20 -10 -15 0 -20 -7 -20 -24 0 -14 5 -28 10 -31 6 -3 10 -19 10 -36 0
-16 -4 -29 -10 -29 -5 0 -10 -4 -10 -10 0 -5 12 -10 27 -10 41 0 17 -14 -35
-20 -42 -4 -47 -8 -50 -32 -3 -27 -1 -28 38 -28 25 0 39 -4 35 -10 -3 -5 -19
-10 -35 -10 -31 0 -47 -14 -30 -25 8 -5 7 -11 -1 -21 -9 -11 -8 -14 7 -14 12
0 15 -3 8 -10 -6 -6 -17 -8 -25 -5 -10 4 -13 20 -11 66 4 58 3 60 -19 57 -31
-4 -37 -28 -7 -29 13 0 17 -3 10 -6 -7 -3 -12 -23 -12 -49 0 -24 -4 -44 -10
-44 -5 0 -10 5 -10 10 0 6 -4 10 -10 10 -18 0 -11 -68 8 -79 16 -9 16 -10 0
-16 -22 -9 -23 -41 -3 -49 27 -10 1 -44 -29 -39 -22 5 -25 11 -28 56 -2 40 -7
53 -20 55 -12 2 -18 -3 -18 -16 0 -11 -6 -22 -12 -24 -7 -3 -107 -4 -223 -3
-186 2 -210 4 -213 19 -4 20 -32 21 -32 1 0 -12 -16 -15 -80 -15 l-80 0 0
-101 0 -102 96 6 c76 4 93 3 85 -7 -6 -7 -24 -11 -41 -8 -17 2 -55 1 -85 -3
l-55 -6 0 -40 0 -39 88 0 c48 0 209 4 357 10 149 5 366 12 483 15 l212 7 0
-45 c0 -82 27 -77 -370 -61 -176 7 -761 6 -769 -2 -11 -10 17 -13 224 -19 121
-4 236 -8 255 -10 19 -2 150 -8 290 -14 302 -13 360 -18 361 -34 0 -7 1 -74 2
-149 2 -117 0 -138 -13 -138 -8 0 -105 7 -215 15 -117 9 -346 15 -552 15
l-353 0 0 -757 0 -756 426 6 425 6 24 -27 c13 -15 32 -37 42 -49 46 -54 193
-168 264 -203 l79 -40 435 0 434 0 0 68 c-1 89 18 185 48 246 24 47 25 48 36
26 7 -13 24 -32 39 -43 22 -17 32 -18 50 -9 22 10 22 11 -8 11 -34 1 -56 26
-91 101 -27 58 -33 111 -23 202 9 70 36 145 67 180 16 18 9 43 -9 32 -7 -4 -8
-2 -4 5 6 9 11 9 22 0 11 -9 20 -6 43 19 16 17 26 34 23 38 -4 4 -1 4 6 0 8
-5 20 0 30 12 9 10 51 35 92 55 41 20 66 37 55 37 -26 0 -148 -59 -158 -76 -4
-8 -14 -14 -21 -14 -8 0 -16 -7 -20 -15 -3 -8 -13 -15 -22 -15 -10 0 -14 -5
-11 -14 4 -11 1 -13 -10 -9 -14 5 -12 9 8 26 13 10 39 31 57 45 27 23 63 43
164 93 23 11 31 11 24 0 -3 -5 1 -12 10 -15 21 -8 39 -8 30 1 -9 9 79 32 127
33 20 0 46 6 57 13 14 8 23 9 28 2 9 -13 115 -14 125 0 4 6 10 7 15 0 4 -5 27
-11 52 -12 24 -2 67 -9 95 -17 27 -9 54 -15 59 -15 5 1 12 -3 15 -8 11 -15 78
-42 97 -39 11 2 13 1 5 -1 -10 -4 -6 -12 14 -29 15 -13 32 -21 37 -18 4 3 7 0
6 -8 -2 -7 5 -12 14 -12 10 1 16 -2 13 -6 -6 -10 71 -80 81 -72 4 4 4 1 0 -5
-4 -7 -1 -22 7 -34 11 -15 16 -17 21 -7 3 7 4 3 2 -10 -2 -12 0 -20 5 -16 5 3
9 -2 9 -10 0 -9 4 -16 10 -16 5 0 6 8 3 17 -4 10 11 -3 33 -28 21 -26 52 -51
69 -56 56 -17 123 -144 146 -277 19 -114 -13 -283 -60 -314 -19 -13 -21 -13
-21 4 0 15 -2 16 -9 5 -13 -21 -41 3 -34 29 6 22 -31 138 -52 166 -8 10 -15
26 -15 35 0 8 -9 25 -20 37 -11 12 -20 25 -20 30 0 15 -119 122 -135 122 -9 0
-13 5 -10 10 3 6 0 10 -8 10 -8 0 -20 7 -27 15 -7 8 -21 15 -31 15 -11 0 -19
4 -19 10 0 14 -145 80 -176 80 -26 0 -27 0 -9 20 18 19 17 20 -4 20 -12 0 -24
-7 -28 -16 -3 -9 -34 -45 -69 -80 -35 -35 -64 -69 -64 -74 0 -6 -4 -10 -10
-10 -5 0 -33 -18 -62 -40 -111 -85 -232 -125 -415 -139 -51 -4 -98 -12 -104
-18 -15 -15 -34 -190 -25 -236 5 -26 12 -37 24 -37 15 0 17 10 14 75 -2 41 2
99 8 129 l11 54 76 1 c41 1 78 3 82 5 3 2 30 6 59 10 29 3 60 10 70 15 9 5 38
19 65 31 26 12 47 26 47 31 0 4 7 6 15 3 8 -4 15 -1 15 5 0 6 6 11 14 11 8 0
28 14 46 30 18 17 35 30 39 30 4 0 42 35 85 77 43 43 86 78 95 80 29 5 151
-43 171 -66 5 -6 60 -34 70 -35 22 -4 180 -162 200 -202 8 -16 18 -31 21 -34
16 -13 49 -125 49 -165 0 -35 4 -45 20 -50 11 -3 20 -13 20 -21 0 -10 13 -14
53 -14 50 1 51 1 27 15 -24 14 -24 14 -3 15 17 0 26 12 42 54 37 101 43 228
16 341 -15 62 -81 181 -123 223 -24 24 -41 46 -38 49 2 3 53 -3 111 -13 124
-20 141 -32 175 -123 36 -98 52 -199 53 -336 0 -136 -11 -197 -41 -215 -11 -6
155 -9 490 -10 l507 0 78 41 c78 41 138 96 164 147 7 15 22 40 33 56 l19 29
161 -7 c89 -3 231 -9 316 -12 85 -3 170 -7 188 -10 l34 -5 -7 -120 -8 -119
282 0 281 0 0 914 0 913 -347 -1 c-248 -1 -371 3 -428 12 -57 10 -207 14 -520
15 l-440 2 -3 87 c-2 63 1 96 12 117 l16 29 167 -2 c173 -3 506 14 519 27 9 9
-122 6 -158 -4 -15 -4 -28 -3 -30 1 -2 5 -25 4 -53 -2 -43 -9 -272 -1 -424 16
-28 3 -27 2 -39 77 l-8 55 710 -2 c399 -1 726 -6 746 -11 19 -5 90 -11 158
-12 l122 -2 0 74 c0 51 -4 77 -12 80 -10 4 -10 6 0 6 9 1 12 110 12 511 l0
510 -160 0 c-100 0 -160 -4 -160 -10 0 -14 -20 -12 -39 3 -12 10 -42 12 -108
9 -90 -4 -93 -5 -93 -28 0 -24 0 -24 -119 -24 l-120 0 -3 28 c-3 24 -7 27 -45
30 -24 2 -43 7 -43 13 0 5 -7 9 -15 9 -11 0 -15 -11 -15 -40 0 -29 -4 -40 -15
-40 -10 0 -15 10 -15 31 l0 30 -92 -2 c-76 -1 -99 -6 -125 -23 -43 -27 -37
-41 18 -43 24 -1 35 1 25 4 -14 4 -16 7 -6 13 16 10 42 1 34 -11 -3 -5 0 -9 5
-9 6 0 11 -7 11 -15 0 -8 -9 -15 -19 -15 -11 0 -21 -4 -23 -9 -1 -5 -43 -11
-93 -14 -69 -3 -90 -7 -90 -18 0 -10 -14 -14 -53 -15 -57 -2 -84 -13 -36 -15
28 -2 28 -2 -5 -8 -25 -4 -35 -12 -37 -28 -2 -13 0 -23 5 -23 5 0 17 -8 27
-17 15 -15 34 -18 111 -16 71 1 93 -1 93 -11 0 -10 -22 -16 -72 -20 -40 -3
-80 -5 -88 -4 -8 0 -43 0 -77 0 l-63 -2 0 -40 c0 -22 5 -40 10 -40 6 0 10 -4
10 -10 0 -5 -6 -10 -14 -10 -15 0 -26 21 -26 51 0 21 -4 23 -28 10 -9 -4 -29
-11 -45 -15 -26 -6 -27 -5 -21 19 4 15 2 25 -4 25 -6 0 -13 8 -15 18 -4 16 -5
16 -6 0 -1 -20 -21 -25 -21 -5 0 6 -8 -1 -19 -16 -15 -23 -20 -25 -24 -13 -4
9 -3 23 0 33 4 11 3 14 -5 9 -7 -4 -11 3 -10 21 0 15 -4 66 -10 113 -11 86
-14 200 -16 815 -1 446 -1 524 4 880 3 165 1 360 -4 433 -10 140 -10 137 34
134 3 0 389 -4 858 -8 l852 -7 0 177 0 176 -752 2 c-414 1 -803 0 -864 -1
l-112 -3 -8 73 c-5 41 -8 161 -6 267 l3 192 -1759 0 -1759 0 -6 -107z m80 -10
c-3 -10 -5 -2 -5 17 0 19 2 27 5 18 2 -10 2 -26 0 -35z m-10 -405 c-3 -8 -6
-5 -6 6 -1 11 2 17 5 13 3 -3 4 -12 1 -19z m3 -38 c0 -11 -4 -20 -9 -20 -5 0
-7 9 -4 20 3 11 7 20 9 20 2 0 4 -9 4 -20z m2137 -15 c42 -26 83 -67 83 -82 0
-7 5 -13 10 -13 6 0 10 -7 10 -15 0 -8 5 -15 10 -15 6 0 9 -3 8 -7 -1 -5 4
-21 11 -38 7 -16 22 -73 33 -125 16 -78 19 -121 15 -240 -5 -141 -9 -177 -28
-270 -43 -203 -46 -225 -33 -296 7 -38 13 -69 13 -69 1 0 4 -25 7 -55 13 -125
24 -189 35 -196 5 -3 9 -10 9 -16 0 -7 -27 -9 -88 -4 -69 5 -92 3 -107 -8 -25
-18 -11 -36 43 -52 35 -11 35 -12 9 -13 -39 -1 -67 -18 -67 -39 0 -32 22 -42
89 -42 37 0 83 -5 104 -11 36 -10 38 -12 32 -40 -5 -21 -3 -29 7 -29 10 0 10
-2 -1 -9 -11 -7 -11 -13 1 -38 l15 -29 -51 13 c-69 18 -106 16 -158 -7 -47
-21 -140 -105 -175 -159 l-21 -33 -18 28 c-52 82 -155 137 -265 142 -66 4 -83
1 -134 -24 -33 -15 -80 -49 -108 -78 -56 -58 -122 -187 -132 -261 -5 -39 -14
-55 -40 -78 -59 -50 -65 -130 -12 -155 23 -11 27 -19 27 -57 0 -109 80 -317
155 -403 45 -52 90 -75 175 -92 145 -28 245 25 331 177 13 24 26 43 29 42 3 0
28 -28 55 -62 70 -86 132 -117 234 -117 97 1 140 20 209 94 28 31 56 55 60 52
4 -2 9 -24 11 -47 1 -23 4 -46 7 -51 3 -5 8 -30 10 -56 4 -45 32 -233 55 -372
6 -36 13 -87 15 -115 3 -27 9 -66 14 -85 5 -19 14 -59 21 -88 9 -41 15 -52 27
-47 12 4 13 3 2 -10 -9 -11 -10 -18 -1 -29 25 -30 -158 -190 -294 -259 -48
-24 -129 -56 -225 -90 -25 -9 -88 -26 -140 -38 -82 -18 -116 -20 -250 -16
-151 5 -252 21 -384 62 -115 35 -265 138 -395 268 -78 80 -83 87 -79 121 2 20
0 36 -5 36 -5 0 -4 7 3 15 7 8 9 15 5 15 -4 0 -3 6 3 13 6 7 12 31 13 52 1 22
8 68 15 101 8 34 16 79 19 100 3 22 9 55 15 74 5 19 10 51 10 72 0 20 4 48 10
63 5 14 12 51 15 82 3 31 8 60 11 65 3 5 8 21 10 36 16 120 26 184 44 292 12
69 23 136 24 150 1 14 4 30 8 36 8 12 13 45 29 169 5 44 14 88 20 98 5 10 7
22 4 27 -3 4 1 39 9 77 8 38 16 78 16 89 1 10 2 38 3 61 1 22 5 39 10 36 4 -2
8 8 8 24 1 15 3 37 5 48 2 11 8 47 13 80 5 33 14 78 21 100 22 79 102 401 111
442 4 23 13 50 18 60 16 28 40 121 34 127 -4 3 -1 6 5 6 6 0 9 7 6 15 -4 8 -2
15 3 15 5 0 10 6 10 13 1 13 28 94 50 144 7 17 13 34 13 38 0 4 13 35 29 69
16 33 41 88 57 121 15 33 42 84 61 113 18 29 33 61 33 72 0 12 7 20 17 20 9 0
14 3 10 6 -3 3 2 20 11 38 17 30 26 43 86 112 15 19 26 34 24 34 -9 0 78 87
103 102 32 20 125 46 156 43 12 -1 35 -10 50 -20z m-2133 -627 c-4 -43 -9 -76
-13 -74 -9 6 -14 663 -4 678 10 16 24 -498 17 -604z m2293 460 c-3 -8 -6 -5
-6 6 -1 11 2 17 5 13 3 -3 4 -12 1 -19z m-2300 -570 c-3 -8 -6 -5 -6 6 -1 11
2 17 5 13 3 -3 4 -12 1 -19z m5 -75 c-4 -55 -12 -54 -12 2 0 27 3 45 7 41 4
-4 6 -23 5 -43z m3315 -265 c-2 -18 -4 -6 -4 27 0 33 2 48 4 33 2 -15 2 -42 0
-60z m-3250 -240 c-3 -8 -6 -5 -6 6 -1 11 2 17 5 13 3 -3 4 -12 1 -19z m1140
-370 c-3 -7 -5 -2 -5 12 0 14 2 19 5 13 2 -7 2 -19 0 -25z m1134 -104 c102
-52 198 -204 223 -351 4 -25 2 -33 -9 -33 -30 0 -14 -18 31 -35 80 -30 103
-70 67 -114 l-18 -21 -60 30 c-88 42 -280 74 -406 66 -79 -5 -99 -3 -109 9
-16 20 -8 28 42 40 23 6 44 17 46 24 4 12 -8 13 -61 8 l-65 -6 -7 45 c-3 25
-15 70 -26 101 l-19 57 25 37 c40 62 87 111 135 142 42 27 50 28 113 23 38 -4
82 -13 98 -22z m-556 -36 c100 -50 155 -127 190 -263 17 -66 11 -80 -29 -65
-32 12 -76 13 -76 2 0 -16 25 -32 49 -32 14 0 44 -10 68 -21 40 -19 44 -24 41
-53 -2 -22 -7 -30 -18 -27 -97 27 -182 35 -355 34 -212 -1 -336 -21 -381 -64
-20 -19 -24 -20 -29 -6 -21 54 26 109 103 122 46 7 67 19 58 33 -3 6 -19 7
-41 2 -19 -4 -38 -4 -41 1 -8 13 15 87 49 156 50 104 137 182 226 202 51 12
139 2 186 -21z m1542 -35 c-3 -10 -5 -4 -5 12 0 17 2 24 5 18 2 -7 2 -21 0
-30z m-1712 -425 c2 -7 9 -32 15 -56 13 -51 48 -77 102 -76 49 2 66 17 95 83
l24 53 50 -6 c27 -4 62 -11 76 -17 26 -10 26 -10 20 -97 -19 -275 -165 -492
-333 -492 -53 0 -167 40 -200 71 -30 28 -96 140 -118 199 -40 110 -59 277 -33
298 43 35 292 68 302 40z m560 -28 c10 -44 41 -77 80 -84 47 -9 85 12 113 63
23 40 25 41 60 35 55 -10 145 -42 153 -56 16 -25 -19 -176 -61 -265 -54 -116
-125 -193 -195 -213 -138 -39 -290 41 -329 171 -13 41 -12 53 5 114 10 37 21
108 25 156 4 49 12 93 18 98 12 10 92 19 113 13 6 -2 15 -17 18 -32z m-1078
-42 c-3 -8 -6 -5 -6 6 -1 11 2 17 5 13 3 -3 4 -12 1 -19z m-1080 -65 c-3 -10
-5 -4 -5 12 0 17 2 24 5 18 2 -7 2 -21 0 -30z m4213 -3 c0 -5 -7 -10 -15 -10
-8 0 -15 5 -15 10 0 6 7 10 15 10 8 0 15 -4 15 -10z m-4213 -67 c-3 -10 -5 -2
-5 17 0 19 2 27 5 18 2 -10 2 -26 0 -35z m4160 31 c-3 -3 -12 -4 -19 -1 -8 3
-5 6 6 6 11 1 17 -2 13 -5z m-3110 -46 c-3 -8 -6 -5 -6 6 -1 11 2 17 5 13 3
-3 4 -12 1 -19z m2923 -48 c0 -5 -7 -10 -15 -10 -8 0 -15 5 -15 10 0 6 7 10
15 10 8 0 15 -4 15 -10z m80 0 c0 -5 18 -10 40 -10 22 0 40 -4 40 -10 0 -5
-18 -10 -40 -10 -57 0 -55 -27 3 -33 40 -3 40 -4 -10 -5 l-53 -2 0 40 c0 22 5
40 10 40 6 0 10 -4 10 -10z m240 0 c0 -6 47 -10 120 -10 73 0 120 4 120 10 0
6 19 10 43 9 23 0 35 -3 27 -6 -8 -3 -20 -11 -26 -19 -8 -10 -48 -13 -157 -15
-137 -1 -147 -2 -147 -20 0 -15 -7 -19 -31 -19 l-31 0 7 -77 c4 -43 11 -82 16
-88 17 -17 9 -35 -16 -35 -14 0 -29 8 -35 20 -9 17 -8 20 10 20 17 0 20 6 20
40 0 22 -4 40 -10 40 -32 0 -64 60 -40 75 6 3 10 15 10 27 0 16 5 19 24 16 17
-3 32 2 48 18 24 24 48 31 48 14z m-372 -38 c2 -7 -3 -12 -12 -12 -9 0 -16 7
-16 16 0 17 22 14 28 -4z m-121 -18 c-3 -3 -12 -4 -19 -1 -8 3 -5 6 6 6 11 1
17 -2 13 -5z m691 -11 c-38 -2 -98 -2 -135 0 -38 2 -7 3 67 3 74 0 105 -1 68
-3z m-518 -13 c0 -5 -18 -10 -40 -10 -22 0 -40 5 -40 10 0 6 18 10 40 10 22 0
40 -4 40 -10z m660 -5 c0 -16 -9 -19 -34 -9 -25 9 -19 24 9 24 16 0 25 -6 25
-15z m-728 -107 c-9 -9 -12 -7 -12 12 0 19 3 21 12 12 9 -9 9 -15 0 -24z
m-104 15 c-10 -2 -28 -2 -40 0 -13 2 -5 4 17 4 22 1 32 -1 23 -4z m-321 -45
c-3 -8 -6 -5 -6 6 -1 11 2 17 5 13 3 -3 4 -12 1 -19z m-3602 2 c3 -5 1 -10 -4
-10 -6 0 -11 5 -11 10 0 6 2 10 4 10 3 0 8 -4 11 -10z m3904 -35 l24 -12 -33
-12 c-36 -12 -44 -8 -55 27 -6 22 -5 23 17 17 12 -4 34 -13 47 -20z m-3894
-65 c-3 -5 -15 -10 -26 -10 -10 0 -19 5 -19 10 0 6 12 10 26 10 14 0 23 -4 19
-10z m3865 -5 c0 -8 -9 -15 -20 -15 -11 0 -20 7 -20 15 0 8 9 15 20 15 11 0
20 -7 20 -15z m460 0 c0 -8 -4 -15 -10 -15 -5 0 -10 7 -10 15 0 8 5 15 10 15
6 0 10 -7 10 -15z m-4345 -94 c7 -12 -12 -24 -25 -16 -11 7 -4 25 10 25 5 0
11 -4 15 -9z m-195 -101 c0 -5 -4 -10 -10 -10 -5 0 -10 5 -10 10 0 6 5 10 10
10 6 0 10 -4 10 -10z m3787 -52 c-3 -8 -6 -5 -6 6 -1 11 2 17 5 13 3 -3 4 -12
1 -19z m223 12 c0 -5 -7 -10 -15 -10 -8 0 -15 5 -15 10 0 6 7 10 15 10 8 0 15
-4 15 -10z m250 -34 c0 -25 5 -48 10 -51 16 -10 11 -25 -8 -25 -15 0 -18 10
-20 60 -2 36 2 60 8 60 5 0 10 -20 10 -44z m-4300 -16 c0 -5 -2 -10 -4 -10 -3
0 -8 5 -11 10 -3 6 -1 10 4 10 6 0 11 -4 11 -10z m-31 -160 c8 -25 7 -32 -5
-37 -19 -7 -20 -5 -27 35 -9 43 17 44 32 2z m-406 -27 c-7 -2 -19 -2 -25 0 -7
3 -2 5 12 5 14 0 19 -2 13 -5z m-83 -98 c0 -2 -42 0 -75 4 -5 1 -4 5 4 10 12
8 71 -4 71 -14z m170 15 c22 -1 23 -2 7 -11 -20 -12 -117 -2 -117 11 0 5 19 7
43 5 23 -2 53 -4 67 -5z m114 0 c12 0 16 -5 13 -14 -4 -10 -1 -13 7 -10 8 3
17 1 21 -5 4 -7 -4 -11 -19 -11 -14 0 -28 5 -31 10 -3 6 -18 11 -33 11 -21 1
-23 2 -7 7 l20 5 -20 9 c-17 7 -16 8 5 3 14 -2 33 -5 44 -5z m84 1 c11 -7 10
-10 -3 -15 -20 -7 -38 1 -30 15 7 11 16 11 33 0z m5409 3 c-3 -3 -12 -4 -19
-1 -8 3 -5 6 6 6 11 1 17 -2 13 -5z m-1204 -11 c-7 -2 -21 -2 -30 0 -10 3 -4
5 12 5 17 0 24 -2 18 -5z m74 1 c-3 -3 -12 -4 -19 -1 -8 3 -5 6 6 6 11 1 17
-2 13 -5z m561 -1 c-10 -2 -26 -2 -35 0 -10 3 -2 5 17 5 19 0 27 -2 18 -5z
m115 0 c-13 -2 -33 -2 -45 0 -13 2 -3 4 22 4 25 0 35 -2 23 -4z m155 0 c-10
-2 -28 -2 -40 0 -13 2 -5 4 17 4 22 1 32 -1 23 -4z m-738 -13 c-25 -4 -36 -8
-26 -8 11 -1 17 -4 14 -7 -3 -4 -18 -3 -34 1 -25 6 -26 8 -9 15 11 4 38 7 60
7 l40 -1 -45 -7z m357 -6 c-3 -3 -12 -4 -19 -1 -8 3 -5 6 6 6 11 1 17 -2 13
-5z m311 -1 c-10 -2 -26 -2 -35 0 -10 3 -2 5 17 5 19 0 27 -2 18 -5z m102 -3
c18 -12 2 -12 -25 0 -13 6 -15 9 -5 9 8 0 22 -4 30 -9z m-5450 -10 c0 -5 -10
-10 -22 -10 -19 0 -20 2 -8 10 19 13 30 13 30 0z m593 3 c-7 -2 -19 -2 -25 0
-7 3 -2 5 12 5 14 0 19 -2 13 -5z m1123 -25 c-16 -22 -16 -22 -16 -1 0 12 6
23 13 26 19 7 20 0 3 -25z m3097 25 c-13 -2 -33 -2 -45 0 -13 2 -3 4 22 4 25
0 35 -2 23 -4z m125 0 c-15 -2 -42 -2 -60 0 -18 2 -6 4 27 4 33 0 48 -2 33 -4z
m605 0 c-13 -2 -35 -2 -50 0 -16 2 -5 4 22 4 28 0 40 -2 28 -4z m-5369 -24
c-11 -5 -13 -8 -5 -8 8 -1 12 -4 8 -7 -3 -3 -15 1 -27 9 -20 14 -21 15 -3 19
10 2 24 2 32 -1 11 -3 10 -6 -5 -12z m4463 5 c-3 -3 -12 -4 -19 -1 -8 3 -5 6
6 6 11 1 17 -2 13 -5z m126 -1 c-13 -2 -35 -2 -50 0 -16 2 -5 4 22 4 28 0 40
-2 28 -4z m180 0 c-7 -2 -21 -2 -30 0 -10 3 -4 5 12 5 17 0 24 -2 18 -5z m350
0 c-7 -2 -19 -2 -25 0 -7 3 -2 5 12 5 14 0 19 -2 13 -5z m-5043 -13 c-18 -12
-43 -13 -36 -2 2 4 15 8 28 9 18 2 19 0 8 -7z m-407 -7 c-7 -2 -21 -2 -30 0
-10 3 -4 5 12 5 17 0 24 -2 18 -5z m3644 -55 c-3 -8 -6 -5 -6 6 -1 11 2 17 5
13 3 -3 4 -12 1 -19z m-1780 -10 c-3 -8 -6 -5 -6 6 -1 11 2 17 5 13 3 -3 4
-12 1 -19z m1853 -105 c0 -62 -100 -348 -162 -463 -90 -166 -113 -207 -131
-227 -20 -23 -137 -76 -194 -88 -31 -6 -32 -5 -68 72 -62 129 -79 164 -124
247 -41 75 -42 80 -25 93 10 7 25 13 35 13 20 0 138 39 228 74 133 53 290 162
381 264 25 27 48 50 53 51 4 1 7 -16 7 -36z m-1759 -71 c124 -129 262 -216
409 -257 104 -29 239 -55 291 -55 21 0 40 -3 42 -7 4 -7 -89 -173 -111 -198
-5 -6 -36 -59 -68 -118 l-59 -108 -45 6 c-38 5 -128 40 -230 89 -52 25 -219
397 -306 684 -7 23 -10 42 -5 42 4 0 41 -35 82 -78z m663 -615 c64 -110 96
-179 96 -205 0 -35 -55 -178 -76 -199 -8 -8 -14 -11 -14 -6 0 5 -47 8 -105 7
l-105 -1 -56 76 c-69 94 -165 243 -160 249 2 2 22 -6 44 -17 35 -18 201 -71
222 -71 4 0 22 28 40 63 45 84 79 137 88 137 4 0 15 -15 26 -33z m523 -57 c32
-76 48 -80 151 -47 42 13 79 23 81 21 5 -4 -103 -165 -170 -254 -68 -90 -106
-127 -118 -114 -4 5 -23 54 -41 108 -23 72 -31 110 -27 139 6 45 76 207 89
207 5 0 20 -27 35 -60z m-433 -348 c2 -4 -4 -8 -15 -8 -10 0 -19 4 -19 8 0 4
6 8 14 8 8 0 17 -4 20 -8z m73 -8 c-3 -3 -12 -4 -19 -1 -8 3 -5 6 6 6 11 1 17
-2 13 -5z m-814 -279 c-9 -19 -20 -35 -24 -35 -7 0 4 26 24 58 16 25 16 11 0
-23z m-42 -111 c-7 -26 -9 -59 -6 -74 3 -16 1 -31 -4 -35 -7 -4 -11 14 -11 54
0 33 5 63 10 66 6 3 10 16 10 27 0 12 3 19 6 15 4 -3 1 -27 -5 -53z m-1 -163
c0 -6 -4 -13 -10 -16 -5 -3 -10 1 -10 9 0 9 5 16 10 16 6 0 10 -4 10 -9z m7
-93 c-3 -8 -6 -5 -6 6 -1 11 2 17 5 13 3 -3 4 -12 1 -19z"/>
<path d="M3113 5328 c-1 -13 -7 -24 -13 -26 -15 -5 -12 -22 5 -22 17 0 32 47
18 61 -5 5 -9 0 -10 -13z"/>
<path d="M3305 4830 c-11 -36 26 -59 39 -24 4 12 2 15 -9 11 -8 -4 -17 -2 -20
3 -4 6 -1 10 4 10 6 0 11 5 11 10 0 18 -18 11 -25 -10z"/>
<path d="M2910 4390 c-64 -4 -144 -13 -178 -20 -55 -13 -62 -17 -62 -38 0 -24
2 -25 58 -19 l57 6 -65 -32 c-45 -23 -66 -39 -68 -54 -4 -29 21 -35 81 -19
115 30 161 38 249 42 83 3 93 6 96 23 2 15 -4 22 -25 27 -15 3 -32 7 -38 9 -5
1 9 10 33 20 38 16 54 37 35 48 -20 11 -67 13 -173 7z"/>
<path d="M3027 2419 c-43 -10 -163 -65 -171 -78 -3 -5 0 -13 7 -19 9 -8 33 0
87 26 65 32 85 37 145 37 39 0 82 -4 98 -9 22 -7 27 -5 27 8 0 37 -104 56
-193 35z"/>
<path d="M6038 3523 c12 -2 30 -2 40 0 9 3 -1 5 -23 4 -22 0 -30 -2 -17 -4z"/>
<path d="M5431 3504 c0 -11 3 -14 6 -6 3 7 2 16 -1 19 -3 4 -6 -2 -5 -13z"/>
<path d="M5778 3511 c-98 -9 -94 -21 6 -21 63 0 87 3 84 12 -5 15 -10 16 -90
9z"/>
<path d="M6300 3505 c0 -8 5 -15 10 -15 6 0 10 7 10 15 0 8 -4 15 -10 15 -5 0
-10 -7 -10 -15z"/>
<path d="M5370 3490 c-11 -7 -12 -14 -4 -27 17 -27 34 -27 34 1 0 29 -10 38
-30 26z"/>
<path d="M5895 3480 c-3 -5 1 -10 9 -10 9 0 16 5 16 10 0 6 -4 10 -9 10 -6 0
-13 -4 -16 -10z"/>
<path d="M5430 3460 c0 -11 -5 -20 -12 -20 -6 0 -9 -2 -6 -5 7 -7 58 5 58 14
0 3 -9 12 -20 19 -18 11 -20 10 -20 -8z"/>
<path d="M6320 3455 c0 -8 7 -15 15 -15 8 0 15 4 15 9 0 5 -7 11 -15 15 -9 3
-15 0 -15 -9z"/>
<path d="M6055 3430 c3 -5 10 -10 16 -10 5 0 9 5 9 10 0 6 -7 10 -16 10 -8 0
-12 -4 -9 -10z"/>
<path d="M5167 3334 c-9 -10 2 -24 19 -24 8 0 14 7 14 15 0 15 -21 21 -33 9z"/>
<path d="M4920 3219 c0 -5 5 -7 10 -4 6 3 10 8 10 11 0 2 -4 4 -10 4 -5 0 -10
-5 -10 -11z"/>
<path d="M4712 3178 c3 -7 13 -15 24 -17 16 -3 17 -1 5 13 -16 19 -34 21 -29
4z"/>
<path d="M920 3150 c0 -5 9 -10 21 -10 11 0 17 5 14 10 -3 6 -13 10 -21 10 -8
0 -14 -4 -14 -10z"/>
<path d="M1132 3140 c0 -14 2 -19 5 -12 2 6 2 18 0 25 -3 6 -5 1 -5 -13z"/>
<path d="M148 3135 c-3 -4 -3 -18 1 -33 8 -28 31 -37 39 -14 2 6 -1 12 -7 12
-7 0 -15 9 -19 20 -4 12 -11 18 -14 15z"/>
<path d="M80 3105 c0 -8 7 -15 15 -15 8 0 15 7 15 15 0 8 -7 15 -15 15 -8 0
-15 -7 -15 -15z"/>
<path d="M640 3066 c0 -16 5 -26 15 -26 8 0 15 6 15 14 0 7 -7 19 -15 26 -13
11 -15 8 -15 -14z"/>
<path d="M240 3060 c0 -5 18 -10 40 -10 22 0 40 5 40 10 0 6 -18 10 -40 10
-22 0 -40 -4 -40 -10z"/>
<path d="M140 3025 c0 -8 5 -15 10 -15 6 0 10 7 10 15 0 8 -4 15 -10 15 -5 0
-10 -7 -10 -15z"/>
<path d="M233 3000 c0 -25 2 -35 4 -22 2 12 2 32 0 45 -2 12 -4 2 -4 -23z"/>
<path d="M224 2903 c-7 -2 -9 -22 -6 -53 l5 -50 -47 0 c-49 0 -61 -15 -31 -40
8 -7 15 -19 15 -26 0 -11 -19 -14 -80 -14 -73 0 -80 -2 -80 -20 0 -19 7 -20
160 -20 153 0 160 1 160 20 0 15 -7 20 -26 20 -28 0 -54 21 -54 43 0 9 -6 18
-12 20 -10 4 -10 7 0 15 16 11 13 111 -4 105z"/>
<path d="M165 2890 c-3 -5 -1 -10 4 -10 6 0 11 5 11 10 0 6 -2 10 -4 10 -3 0
-8 -4 -11 -10z"/>
<path d="M753 2882 c-20 -2 -33 -9 -33 -17 0 -8 15 -18 33 -23 27 -7 34 -6 41
10 12 25 -1 34 -41 30z"/>
<path d="M640 2784 c0 -12 10 -14 47 -12 66 4 70 28 4 28 -39 0 -51 -4 -51
-16z"/>
<path d="M258 2553 c12 -2 32 -2 45 0 12 2 2 4 -23 4 -25 0 -35 -2 -22 -4z"/>
<path d="M6255 2152 c-3 -3 -71 -9 -153 -13 -138 -7 -135 -7 48 -3 107 2 207
4 223 4 15 0 27 5 27 10 0 11 -134 12 -145 2z"/>
<path d="M6065 2059 c-88 -5 -266 -13 -395 -18 -228 -9 -224 -9 120 -5 411 5
610 13 610 25 0 10 -108 9 -335 -2z"/>
<path d="M0 1906 c0 -10 38 -13 177 -15 97 -1 179 -4 183 -6 17 -10 768 -31
759 -21 -4 4 -38 9 -75 10 -165 9 -603 26 -764 30 -96 3 -199 7 -227 10 -40 4
-53 2 -53 -8z"/>
<path d="M3456 675 c-7 -19 2 -42 18 -48 10 -4 14 19 7 56 -2 13 -19 8 -25 -8z
m24 -15 c0 -5 -2 -10 -4 -10 -3 0 -8 5 -11 10 -3 6 -1 10 4 10 6 0 11 -4 11
-10z"/>
<path d="M3130 311 c0 -19 18 -31 46 -31 8 0 14 10 14 25 0 14 -4 25 -10 25
-5 0 -10 -10 -10 -21 0 -18 -2 -19 -15 -9 -8 7 -12 16 -9 21 3 5 0 9 -5 9 -6
0 -11 -9 -11 -19z"/>
<path d="M95 100 c-4 -6 7 -10 24 -10 17 0 31 5 31 10 0 6 -11 10 -24 10 -14
0 -28 -4 -31 -10z"/>
<path d="M160 99 c0 -5 5 -7 10 -4 6 3 10 8 10 11 0 2 -4 4 -10 4 -5 0 -10 -5
-10 -11z"/>
<path d="M323 103 c15 -2 39 -2 55 0 15 2 2 4 -28 4 -30 0 -43 -2 -27 -4z"/>
<path d="M470 107 c3 -3 75 -8 160 -11 90 -4 149 -3 142 3 -14 8 -311 16 -302
8z"/>
<path d="M5359 105 c-3 -2 -63 -5 -134 -6 -71 0 -122 -4 -114 -8 8 -3 91 -4
184 -1 94 3 198 3 233 0 34 -3 62 -3 62 1 0 11 -221 25 -231 14z"/>
<path d="M58 93 c7 -3 16 -2 19 1 4 3 -2 6 -13 5 -11 0 -14 -3 -6 -6z"/>
<path d="M208 93 c7 -3 16 -2 19 1 4 3 -2 6 -13 5 -11 0 -14 -3 -6 -6z"/>
<path d="M5045 90 c3 -5 8 -10 11 -10 2 0 4 5 4 10 0 6 -5 10 -11 10 -5 0 -7
-4 -4 -10z"/>
<path d="M5611 89 c8 -5 34 -8 59 -8 53 1 44 6 -24 12 -30 3 -43 1 -35 -4z"/>
<path d="M5738 83 c7 -3 16 -2 19 1 4 3 -2 6 -13 5 -11 0 -14 -3 -6 -6z"/>
<path d="M3550 22 c0 -12 19 -26 26 -19 2 2 -2 10 -11 17 -9 8 -15 8 -15 2z"/>
</g>
</svg>
