<?xml version="1.0" standalone="no"?>
<!DOCTYPE svg PUBLIC "-//W3C//DTD SVG 20010904//EN"
 "http://www.w3.org/TR/2001/REC-SVG-20010904/DTD/svg10.dtd">
<svg version="1.0" xmlns="http://www.w3.org/2000/svg"
 width="198.000000pt" height="300.000000pt" viewBox="0 0 198.000000 300.000000"
 preserveAspectRatio="xMidYMid meet">

<g transform="translate(0.000000,300.000000) scale(0.100000,-0.100000)"
fill="#000000" stroke="none">
<path d="M675 2981 c-45 -20 -95 -72 -124 -129 -39 -77 -64 -195 -181 -856
l-120 -679 -90 -147 c-102 -168 -132 -231 -150 -315 -21 -103 7 -244 59 -288
23 -19 30 -36 40 -102 7 -44 17 -92 23 -107 28 -75 169 -153 351 -194 61 -14
180 -50 262 -79 147 -53 298 -85 403 -85 61 0 138 19 166 41 56 44 39 132 -40
205 l-46 42 51 11 c44 9 62 8 124 -9 147 -41 430 -50 511 -16 105 44 74 168
-61 246 -33 19 -68 48 -76 63 -17 28 -70 57 -106 57 -15 0 -20 10 -25 48 -19
132 -74 273 -134 342 -18 21 -33 50 -37 75 -8 55 -53 147 -104 215 -23 30 -49
80 -58 110 -9 30 -60 210 -113 400 l-97 345 24 41 c50 88 21 201 -64 246 -29
16 -46 33 -53 53 -14 47 -37 142 -55 230 -29 140 -65 202 -140 236 -50 23 -89
23 -140 0z m176 -36 c44 -43 67 -94 90 -198 11 -51 29 -126 40 -169 10 -42 19
-79 19 -82 0 -3 -19 -10 -42 -17 -23 -6 -57 -26 -76 -45 l-34 -34 -24 29 c-14
16 -44 37 -68 46 -57 22 -117 7 -163 -41 -57 -61 -64 -137 -21 -214 28 -51 64
-73 124 -78 57 -5 109 18 139 60 14 21 14 21 43 -10 49 -52 126 -68 185 -37
21 11 29 11 32 2 3 -7 63 -221 135 -477 71 -256 132 -471 135 -478 4 -10 -1
-11 -18 -6 -13 4 11 -26 63 -77 l85 -83 -130 -7 c-71 -3 -159 -9 -195 -12 -36
-4 -59 -4 -53 -1 15 7 18 34 4 34 -6 0 -13 -4 -16 -10 -10 -16 -25 -12 -19 5
5 11 -1 15 -20 15 -14 0 -26 -4 -26 -10 0 -5 -7 -10 -15 -10 -8 0 -15 -4 -15
-9 0 -12 25 -21 58 -22 15 0 -15 -9 -66 -20 -118 -25 -261 -70 -373 -119 -192
-83 -420 -242 -496 -345 l-22 -30 -1 27 c0 18 6 29 20 33 11 3 44 48 76 103
32 53 97 157 146 230 48 72 84 132 78 132 -13 0 -124 -162 -205 -300 -38 -63
-78 -126 -90 -139 -32 -33 -62 -21 -89 37 -18 40 -21 65 -21 162 0 111 1 117
36 190 19 41 60 113 89 160 121 192 99 112 231 860 138 781 150 830 226 920
47 57 80 72 150 68 53 -3 67 -8 94 -33z m-62 -502 c91 -67 77 -224 -25 -274
-96 -46 -204 30 -204 144 0 49 39 116 80 139 43 23 110 19 149 -9z m289 -1
c54 -39 80 -138 51 -195 -53 -103 -167 -123 -237 -43 -28 32 -30 40 -28 109 2
84 16 115 68 141 42 21 106 16 146 -12z m348 -1237 c19 -38 34 -78 34 -89 0
-17 -5 -16 -34 13 -24 24 -38 50 -51 99 -10 37 -20 74 -22 82 -10 33 40 -39
73 -105z m95 -212 c7 -7 -39 -12 -138 -17 -514 -24 -882 -160 -1160 -430 -89
-85 -121 -98 -68 -27 53 72 249 218 388 287 178 90 412 162 597 183 52 6 111
13 130 15 63 7 241 -1 251 -11z m46 -83 c25 -51 63 -202 63 -249 0 -17 5 -31
10 -31 6 0 10 -6 10 -14 0 -7 7 -19 15 -26 18 -15 11 -30 -15 -30 -24 0 -31
-21 -16 -48 10 -20 6 -34 -29 -105 -23 -45 -44 -92 -47 -104 -7 -28 -26 -28
-123 -4 l-70 18 38 7 c20 5 37 12 37 17 0 13 -7 12 -122 -16 -57 -14 -108 -25
-114 -25 -7 0 -15 12 -19 27 -8 33 -62 93 -84 93 -9 0 1 -17 27 -43 48 -49 52
-60 18 -51 -32 8 -89 -11 -125 -42 l-28 -23 -23 24 c-39 41 -67 31 -87 -30
-15 -45 -43 -39 -71 15 -13 25 -29 48 -35 52 -42 26 -94 -17 -137 -112 -13
-30 -25 -56 -26 -58 -2 -5 -151 29 -214 50 -145 47 -236 111 -260 182 -11 34
-10 38 26 81 79 97 256 231 399 303 51 25 183 82 191 82 1 0 10 -24 18 -54 22
-75 39 -89 94 -83 33 4 53 14 81 41 20 20 40 36 44 36 12 0 8 -41 -9 -95 -14
-45 -15 -56 -3 -81 20 -42 71 -64 150 -64 125 0 218 48 233 120 7 37 -16 93
-47 115 -35 24 -14 45 44 45 82 0 107 35 73 101 l-15 30 63 -3 63 -3 22 -45z
m246 -381 c102 -52 147 -107 147 -179 0 -39 -2 -42 -47 -63 -42 -18 -65 -21
-184 -20 -75 0 -141 3 -147 7 -7 4 -1 30 17 74 51 124 110 196 164 201 4 1 27
-9 50 -20z m-592 -260 c60 -38 88 -69 104 -115 16 -47 7 -82 -29 -108 -24 -19
-42 -21 -159 -21 -153 0 -227 10 -227 30 0 25 80 169 113 203 57 58 117 62
198 11z"/>
<path d="M552 2713 c4 -21 33 -25 33 -3 0 8 -8 16 -18 18 -14 3 -18 -1 -15
-15z"/>
<path d="M883 2653 c-21 -7 -15 -33 7 -33 11 0 20 6 20 14 0 18 -11 25 -27 19z"/>
<path d="M739 1937 c-95 -40 -158 -96 -224 -201 -67 -106 -125 -306 -125 -433
0 -54 7 -57 151 -74 182 -21 485 6 654 59 l60 18 -3 70 c-7 142 -60 326 -121
421 -69 107 -146 154 -261 160 -62 3 -85 0 -131 -20z"/>
<path d="M975 1209 c-16 -5 -51 -11 -77 -14 -54 -7 -65 -25 -15 -25 46 1 117
16 129 28 15 15 -3 20 -37 11z"/>
<path d="M213 1164 c-7 -19 2 -28 22 -21 19 8 19 23 0 31 -9 3 -18 -1 -22 -10z"/>
<path d="M970 1155 c0 -8 9 -15 20 -15 11 0 20 7 20 15 0 8 -9 15 -20 15 -11
0 -20 -7 -20 -15z"/>
<path d="M1212 1143 c4 -21 33 -25 33 -3 0 8 -8 16 -18 18 -14 3 -18 -1 -15
-15z"/>
<path d="M726 1035 c-3 -9 1 -18 10 -22 19 -7 28 2 21 22 -8 19 -23 19 -31 0z"/>
<path d="M125 701 c-8 -15 3 -31 21 -31 9 0 14 7 12 17 -4 20 -24 28 -33 14z"/>
<path d="M707 2325 c-8 -18 11 -31 25 -17 11 11 3 32 -12 32 -4 0 -10 -7 -13
-15z"/>
<path d="M994 2329 c-10 -17 13 -36 27 -22 12 12 4 33 -11 33 -5 0 -12 -5 -16
-11z"/>
<path d="M1217 234 c-14 -14 -7 -35 11 -32 9 2 17 10 17 17 0 16 -18 25 -28
15z"/>
</g>
</svg>
